<svg width="500" height="400" viewBox="0 0 500 400" fill="none" xmlns="http://www.w3.org/2000/svg">
<rect width="500" height="400" fill="#F1F2F5"/>
<g clip-path="url(#clip0)">
<path d="M293.169 295C291.839 295 290.478 294.834 289.132 294.477L166.717 261.695C158.325 259.383 153.322 250.69 155.522 242.299L170.968 184.729C171.538 182.615 173.707 181.388 175.813 181.926C177.927 182.488 179.177 184.665 178.615 186.771L163.178 244.325C162.077 248.521 164.595 252.891 168.799 254.055L291.167 286.822C295.37 287.93 299.709 285.429 300.801 281.249L306.984 258.338C307.554 256.224 309.723 254.965 311.837 255.543C313.951 256.113 315.194 258.29 314.632 260.396L308.457 283.275C306.596 290.321 300.184 295 293.169 295Z" fill="black"/>
<path d="M329.167 247.5H202.5C193.768 247.5 186.667 240.399 186.667 231.667V136.667C186.667 127.935 193.768 120.833 202.5 120.833H329.167C337.899 120.833 345 127.935 345 136.667V231.667C345 240.399 337.899 247.5 329.167 247.5ZM202.5 128.75C198.138 128.75 194.583 132.305 194.583 136.667V231.667C194.583 236.029 198.138 239.583 202.5 239.583H329.167C333.529 239.583 337.083 236.029 337.083 231.667V136.667C337.083 132.305 333.529 128.75 329.167 128.75H202.5Z" fill="black"/>
<path d="M226.25 176.25C217.518 176.25 210.417 169.149 210.417 160.417C210.417 151.685 217.518 144.583 226.25 144.583C234.982 144.583 242.083 151.685 242.083 160.417C242.083 169.149 234.982 176.25 226.25 176.25ZM226.25 152.5C221.888 152.5 218.333 156.054 218.333 160.417C218.333 164.779 221.888 168.333 226.25 168.333C230.612 168.333 234.167 164.779 234.167 160.417C234.167 156.054 230.612 152.5 226.25 152.5Z" fill="black"/>
<path d="M191.179 239.029C190.166 239.029 189.153 238.641 188.377 237.873C186.833 236.329 186.833 233.82 188.377 232.276L225.767 194.886C230.248 190.405 238.078 190.405 242.558 194.886L253.689 206.017L284.501 169.046C286.741 166.362 290.035 164.802 293.542 164.771H293.629C297.096 164.771 300.382 166.275 302.646 168.911L344.05 217.219C345.475 218.873 345.285 221.375 343.623 222.8C341.968 224.225 339.474 224.043 338.041 222.372L296.637 174.065C295.869 173.178 294.808 172.687 293.629 172.687C292.805 172.616 291.357 173.186 290.589 174.112L256.998 214.416C256.286 215.271 255.249 215.786 254.133 215.833C253.008 215.912 251.94 215.469 251.156 214.677L236.961 200.483C235.465 198.994 232.86 198.994 231.364 200.483L193.974 237.873C193.206 238.641 192.193 239.029 191.179 239.029Z" fill="black"/>
</g>
<defs>
<clipPath id="clip0">
<rect width="190" height="190" fill="white" transform="translate(155 105)"/>
</clipPath>
</defs>
</svg>
